<?xml version="1.0" standalone="no"?>
<!DOCTYPE svg PUBLIC "-//W3C//DTD SVG 20010904//EN"
 "http://www.w3.org/TR/2001/REC-SVG-20010904/DTD/svg10.dtd">
<svg version="1.0" xmlns="http://www.w3.org/2000/svg"
 width="1024.000000pt" height="1024.000000pt" viewBox="0 0 1024.000000 1024.000000"
 preserveAspectRatio="xMidYMid meet">

<g transform="translate(0.000000,1024.000000) scale(0.100000,-0.100000)"
fill="#000000" stroke="none">
<path d="M5810 7460 l0 -260 260 0 260 0 0 -260 0 -260 260 0 260 0 0 260 0
260 255 0 255 0 0 260 0 260 -260 0 -260 0 0 -257 0 -258 -252 2 -253 2 -3
256 -2 255 -260 0 -260 0 0 -260z"/>
<path d="M5898 6514 c-15 -8 -32 -23 -38 -34 -6 -11 -10 -127 -10 -299 l0
-281 -632 0 c-615 0 -634 -1 -666 -20 -18 -11 -37 -32 -42 -46 -6 -15 -10
-272 -10 -661 l0 -635 34 -34 34 -34 1971 0 c1506 0 1976 3 1996 12 55 25 55
20 55 617 l0 550 -24 28 -24 28 -614 5 -613 5 -2 370 c-3 403 -4 408 -60 432
-50 20 -1316 18 -1355 -3z m1222 -1019 l0 -845 -540 0 -540 0 0 845 0 845 540
0 540 0 0 -845z m-1277 -312 l-3 -528 -575 -3 -575 -2 0 530 0 530 578 0 577
0 -2 -527z m2557 -93 l0 -430 -540 0 -540 0 0 430 0 430 540 0 540 0 0 -430z"/>
<path d="M4040 4196 c-152 -33 -252 -93 -308 -186 -45 -75 -55 -120 -50 -225
4 -107 29 -166 94 -232 75 -74 147 -104 422 -173 215 -54 275 -79 303 -124 48
-79 3 -162 -109 -196 -141 -44 -387 -19 -672 67 -13 3 -15 -13 -12 -120 l3
-124 87 -26 c120 -36 187 -47 332 -54 326 -15 565 76 643 245 19 40 22 65 22
162 0 109 -2 118 -29 168 -36 64 -87 112 -157 148 -71 36 -106 47 -312 105
-98 27 -201 59 -228 70 -136 59 -121 205 25 256 104 36 338 16 543 -46 l62
-19 3 119 3 119 -30 10 c-17 5 -80 22 -140 36 -137 32 -390 42 -495 20z"/>
<path d="M1432 3508 l3 -683 138 -2 137 -3 0 285 0 285 314 0 314 0 1 120 0
120 -314 0 -315 0 0 155 0 155 375 0 375 0 0 125 0 125 -515 0 -515 0 2 -682z"/>
<path d="M2795 4146 c-88 -24 -179 -49 -202 -55 l-43 -12 0 -134 c0 -74 4
-135 9 -135 8 0 268 76 296 86 13 5 15 -54 15 -536 l0 -541 135 2 135 2 0 683
0 684 -92 -1 c-76 0 -122 -8 -253 -43z"/>
<path d="M5090 3955 l0 -135 -95 0 -95 0 0 -110 0 -110 95 0 95 0 0 -287 c0
-281 1 -289 24 -338 46 -100 117 -147 251 -166 77 -10 109 -9 253 13 l72 11 0
102 0 103 -124 -2 c-112 -1 -127 1 -153 20 -50 37 -53 51 -53 307 l0 237 165
0 165 0 0 110 0 110 -165 0 -165 0 0 135 0 135 -135 0 -135 0 0 -135z"/>
<path d="M7090 3955 l0 -135 -100 0 -100 0 0 -110 0 -110 100 0 99 0 3 -298
c3 -297 3 -298 29 -347 31 -61 92 -109 167 -132 69 -21 225 -23 330 -4 l72 13
0 103 0 104 -124 -2 c-112 -2 -127 0 -153 19 -50 37 -53 51 -53 307 l0 237
165 0 165 0 0 110 0 110 -165 0 -165 0 0 135 0 135 -135 0 -135 0 0 -135z"/>
<path d="M6175 3844 c-58 -8 -150 -25 -197 -35 l-48 -11 0 -113 0 -112 80 18
c167 39 327 42 415 9 37 -14 72 -46 91 -82 17 -33 30 -138 17 -138 -5 0 -49 9
-99 20 -239 53 -433 28 -527 -68 -57 -58 -81 -123 -80 -217 0 -174 97 -280
278 -306 117 -16 277 12 387 67 26 13 49 24 52 24 3 0 6 -17 8 -37 l3 -38 118
-2 118 -2 -3 377 -3 377 -28 60 c-48 103 -117 157 -244 191 -56 15 -278 27
-338 18z m278 -620 c38 -8 73 -17 78 -20 5 -3 9 -26 9 -52 0 -43 -3 -49 -37
-71 -55 -35 -140 -61 -224 -68 -127 -10 -189 26 -189 111 0 115 127 150 363
100z"/>
<path d="M8103 3836 c-87 -20 -180 -72 -215 -120 -71 -99 -76 -248 -11 -335
51 -67 143 -108 373 -167 118 -29 147 -44 160 -80 22 -57 -33 -108 -129 -120
-71 -9 -231 10 -344 40 l-87 23 0 -108 c0 -59 4 -110 10 -114 27 -17 199 -46
300 -51 240 -12 417 54 481 178 44 86 40 223 -8 292 -57 81 -133 117 -358 166
-168 38 -193 54 -183 120 11 80 212 99 440 41 l68 -17 0 107 c0 94 -2 108 -17
113 -127 39 -375 56 -480 32z"/>
</g>
</svg>
